<?xml version="1.0" encoding="UTF-8"?>
<!DOCTYPE svg PUBLIC "-//W3C//DTD SVG 1.1//EN" "http://www.w3.org/Graphics/SVG/1.1/DTD/svg11.dtd">
<svg xmlns="http://www.w3.org/2000/svg" xmlns:xlink="http://www.w3.org/1999/xlink" version="1.1" width="1562px" height="4062px" viewBox="-0.5 -0.5 1562 4062"><defs/><g><g data-cell-id="0"><g data-cell-id="1"><g data-cell-id="ref"><g><rect x="0" y="0" width="40" height="40" fill="rgb(255, 255, 255)" stroke="rgb(0, 0, 0)" pointer-events="all"/></g></g><g data-cell-id="r0_0"><g><path d="M 140 100 L 180 140 L 140 180 L 100 140 Z" fill="rgb(255, 255, 255)" stroke="rgb(0, 0, 0)" stroke-miterlimit="10" pointer-events="all"/></g></g><g data-cell-id="r0_1"><g><path d="M 300 100 L 340 140 L 300 180 L 260 140 Z" fill="rgb(255, 255, 255)" stroke="rgb(0, 0, 0)" stroke-miterlimit="10" transform="rotate(90,300,140)" pointer-events="all"/></g></g><g data-cell-id="r0_2"><g><path d="M 460 100 L 500 140 L 460 180 L 420 140 Z" fill="rgb(255, 255, 255)" stroke="rgb(0, 0, 0)" stroke-miterlimit="10" transform="rotate(180,460,140)" pointer-events="all"/></g></g><g data-cell-id="r0_3"><g><path d="M 620 100 L 660 140 L 620 180 L 580 140 Z" fill="rgb(255, 255, 255)" stroke="rgb(0, 0, 0)" stroke-miterlimit="10" transform="rotate(270,620,140)" pointer-events="all"/></g></g><g data-cell-id="r0_4"><g><path d="M 780 100 L 820 140 L 780 180 L 740 140 Z" fill="rgb(255, 255, 255)" stroke="rgb(0, 0, 0)" stroke-miterlimit="10" transform="translate(780,0)scale(-1,1)translate(-780,0)" pointer-events="all"/></g></g><g data-cell-id="r0_5"><g><path d="M 940 100 L 980 140 L 940 180 L 900 140 Z" fill="rgb(255, 255, 255)" stroke="rgb(0, 0, 0)" stroke-miterlimit="10" transform="translate(0,140)scale(1,-1)translate(0,-140)" pointer-events="all"/></g></g><g data-cell-id="r0_6"><g><path d="M 1100 100 L 1140 140 L 1100 180 L 1060 140 Z" fill="rgb(255, 255, 255)" stroke="rgb(0, 0, 0)" stroke-miterlimit="10" transform="rotate(180,1100,140)" pointer-events="all"/></g></g><g data-cell-id="r0_7"><g><path d="M 1260 100 L 1300 140 L 1260 180 L 1220 140 Z" fill="rgb(255, 255, 255)" stroke="rgb(0, 0, 0)" stroke-miterlimit="10" transform="translate(0,140)scale(1,-1)translate(0,-140)rotate(-270,1260,140)" pointer-events="all"/></g></g><g data-cell-id="r0_8"><g><path d="M 140 260 L 180 300 L 140 340 L 100 300 Z" fill="rgb(255, 255, 255)" stroke="rgb(0, 0, 0)" stroke-miterlimit="10" transform="translate(140,0)scale(-1,1)translate(-140,0)rotate(-90,140,300)" pointer-events="all"/></g></g><g data-cell-id="r0_9"><g><path d="M 300 260 L 340 300 L 300 340 L 260 300 Z" fill="rgb(255, 255, 255)" stroke="rgb(0, 0, 0)" stroke-miterlimit="10" transform="translate(300,0)scale(-1,1)translate(-300,0)rotate(-180,300,300)" pointer-events="all"/></g></g><g data-cell-id="r1_0"><g><path d="M 480 260 L 540 290 L 480 320 L 420 290 Z" fill="rgb(255, 255, 255)" stroke="rgb(0, 0, 0)" stroke-miterlimit="10" pointer-events="all"/></g></g><g data-cell-id="r1_1"><g><path d="M 640 230 L 670 290 L 640 350 L 610 290 Z" fill="rgb(255, 255, 255)" stroke="rgb(0, 0, 0)" stroke-miterlimit="10" transform="rotate(90,640,290)" pointer-events="all"/></g></g><g data-cell-id="r1_2"><g><path d="M 800 260 L 860 290 L 800 320 L 740 290 Z" fill="rgb(255, 255, 255)" stroke="rgb(0, 0, 0)" stroke-miterlimit="10" transform="rotate(180,800,290)" pointer-events="all"/></g></g><g data-cell-id="r1_3"><g><path d="M 960 230 L 990 290 L 960 350 L 930 290 Z" fill="rgb(255, 255, 255)" stroke="rgb(0, 0, 0)" stroke-miterlimit="10" transform="rotate(270,960,290)" pointer-events="all"/></g></g><g data-cell-id="r1_4"><g><path d="M 1120 260 L 1180 290 L 1120 320 L 1060 290 Z" fill="rgb(255, 255, 255)" stroke="rgb(0, 0, 0)" stroke-miterlimit="10" transform="translate(1120,0)scale(-1,1)translate(-1120,0)" pointer-events="all"/></g></g><g data-cell-id="r1_5"><g><path d="M 1280 260 L 1340 290 L 1280 320 L 1220 290 Z" fill="rgb(255, 255, 255)" stroke="rgb(0, 0, 0)" stroke-miterlimit="10" transform="translate(0,290)scale(1,-1)translate(0,-290)" pointer-events="all"/></g></g><g data-cell-id="r1_6"><g><path d="M 160 420 L 220 450 L 160 480 L 100 450 Z" fill="rgb(255, 255, 255)" stroke="rgb(0, 0, 0)" stroke-miterlimit="10" transform="rotate(180,160,450)" pointer-events="all"/></g></g><g data-cell-id="r1_7"><g><path d="M 320 390 L 350 450 L 320 510 L 290 450 Z" fill="rgb(255, 255, 255)" stroke="rgb(0, 0, 0)" stroke-miterlimit="10" transform="translate(0,450)scale(1,-1)translate(0,-450)rotate(-270,320,450)" pointer-events="all"/></g></g><g data-cell-id="r1_8"><g><path d="M 480 390 L 510 450 L 480 510 L 450 450 Z" fill="rgb(255, 255, 255)" stroke="rgb(0, 0, 0)" stroke-miterlimit="10" transform="translate(480,0)scale(-1,1)translate(-480,0)rotate(-90,480,450)" pointer-events="all"/></g></g><g data-cell-id="r1_9"><g><path d="M 640 420 L 700 450 L 640 480 L 580 450 Z" fill="rgb(255, 255, 255)" stroke="rgb(0, 0, 0)" stroke-miterlimit="10" transform="translate(640,0)scale(-1,1)translate(-640,0)rotate(-180,640,450)" pointer-events="all"/></g></g><g data-cell-id="r2_0"><g><path d="M 770 420 L 800 470 L 770 520 L 740 470 Z" fill="rgb(255, 255, 255)" stroke="rgb(0, 0, 0)" stroke-miterlimit="10" pointer-events="all"/></g></g><g data-cell-id="r2_1"><g><path d="M 930 440 L 980 470 L 930 500 L 880 470 Z" fill="rgb(255, 255, 255)" stroke="rgb(0, 0, 0)" stroke-miterlimit="10" transform="rotate(90,930,470)" pointer-events="all"/></g></g><g data-cell-id="r2_2"><g><path d="M 1090 420 L 1120 470 L 1090 520 L 1060 470 Z" fill="rgb(255, 255, 255)" stroke="rgb(0, 0, 0)" stroke-miterlimit="10" transform="rotate(180,1090,470)" pointer-events="all"/></g></g><g data-cell-id="r2_3"><g><path d="M 1250 440 L 1300 470 L 1250 500 L 1200 470 Z" fill="rgb(255, 255, 255)" stroke="rgb(0, 0, 0)" stroke-miterlimit="10" transform="rotate(270,1250,470)" pointer-events="all"/></g></g><g data-cell-id="r2_4"><g><path d="M 130 580 L 160 630 L 130 680 L 100 630 Z" fill="rgb(255, 255, 255)" stroke="rgb(0, 0, 0)" stroke-miterlimit="10" transform="translate(130,0)scale(-1,1)translate(-130,0)" pointer-events="all"/></g></g><g data-cell-id="r2_5"><g><path d="M 290 580 L 320 630 L 290 680 L 260 630 Z" fill="rgb(255, 255, 255)" stroke="rgb(0, 0, 0)" stroke-miterlimit="10" transform="translate(0,630)scale(1,-1)translate(0,-630)" pointer-events="all"/></g></g><g data-cell-id="r2_6"><g><path d="M 450 580 L 480 630 L 450 680 L 420 630 Z" fill="rgb(255, 255, 255)" stroke="rgb(0, 0, 0)" stroke-miterlimit="10" transform="rotate(180,450,630)" pointer-events="all"/></g></g><g data-cell-id="r2_7"><g><path d="M 610 600 L 660 630 L 610 660 L 560 630 Z" fill="rgb(255, 255, 255)" stroke="rgb(0, 0, 0)" stroke-miterlimit="10" transform="translate(0,630)scale(1,-1)translate(0,-630)rotate(-270,610,630)" pointer-events="all"/></g></g><g data-cell-id="r2_8"><g><path d="M 770 600 L 820 630 L 770 660 L 720 630 Z" fill="rgb(255, 255, 255)" stroke="rgb(0, 0, 0)" stroke-miterlimit="10" transform="translate(770,0)scale(-1,1)translate(-770,0)rotate(-90,770,630)" pointer-events="all"/></g></g><g data-cell-id="r2_9"><g><path d="M 930 580 L 960 630 L 930 680 L 900 630 Z" fill="rgb(255, 255, 255)" stroke="rgb(0, 0, 0)" stroke-miterlimit="10" transform="translate(930,0)scale(-1,1)translate(-930,0)rotate(-180,930,630)" pointer-events="all"/></g></g><g data-cell-id="t0"><g><path d="M 1060 580 L 1140 610 L 1060 640 Z" fill="rgb(255, 255, 255)" stroke="rgb(0, 0, 0)" stroke-miterlimit="10" pointer-events="all"/></g></g><g data-cell-id="t1"><g><path d="M 1230 570 L 1290 610 L 1230 650 Z" fill="rgb(255, 255, 255)" stroke="rgb(0, 0, 0)" stroke-miterlimit="10" transform="rotate(90,1260,610)" pointer-events="all"/></g></g><g data-cell-id="t2"><g><path d="M 100 740 L 180 770 L 100 800 Z" fill="rgb(255, 255, 255)" stroke="rgb(0, 0, 0)" stroke-miterlimit="10" transform="rotate(180,140,770)" pointer-events="all"/></g></g><g data-cell-id="t3"><g><path d="M 270 730 L 330 770 L 270 810 Z" fill="rgb(255, 255, 255)" stroke="rgb(0, 0, 0)" stroke-miterlimit="10" transform="rotate(270,300,770)" pointer-events="all"/></g></g><g data-cell-id="t4"><g><path d="M 420 740 L 500 770 L 420 800 Z" fill="rgb(255, 255, 255)" stroke="rgb(0, 0, 0)" stroke-miterlimit="10" transform="translate(460,0)scale(-1,1)translate(-460,0)" pointer-events="all"/></g></g><g data-cell-id="t5"><g><path d="M 580 740 L 660 770 L 580 800 Z" fill="rgb(255, 255, 255)" stroke="rgb(0, 0, 0)" stroke-miterlimit="10" transform="translate(0,770)scale(1,-1)translate(0,-770)" pointer-events="all"/></g></g><g data-cell-id="t6"><g><path d="M 740 740 L 820 770 L 740 800 Z" fill="rgb(255, 255, 255)" stroke="rgb(0, 0, 0)" stroke-miterlimit="10" transform="rotate(180,780,770)" pointer-events="all"/></g></g><g data-cell-id="t7"><g><path d="M 910 730 L 970 770 L 910 810 Z" fill="rgb(255, 255, 255)" stroke="rgb(0, 0, 0)" stroke-miterlimit="10" transform="translate(0,770)scale(1,-1)translate(0,-770)rotate(-270,940,770)" pointer-events="all"/></g></g><g data-cell-id="t8"><g><path d="M 1070 730 L 1130 770 L 1070 810 Z" fill="rgb(255, 255, 255)" stroke="rgb(0, 0, 0)" stroke-miterlimit="10" transform="translate(1100,0)scale(-1,1)translate(-1100,0)rotate(-90,1100,770)" pointer-events="all"/></g></g><g data-cell-id="t9"><g><path d="M 1220 740 L 1300 770 L 1220 800 Z" fill="rgb(255, 255, 255)" stroke="rgb(0, 0, 0)" stroke-miterlimit="10" transform="translate(1260,0)scale(-1,1)translate(-1260,0)rotate(-180,1260,770)" pointer-events="all"/></g></g><g data-cell-id="p0_0"><g><path d="M 100 900 L 170 900 L 170 912 L 200 912 L 200 924 L 170 924 L 170 936 L 200 936 L 200 948 L 170 948 L 170 960 L 100 960 Z" fill="rgb(255, 255, 255)" stroke="rgb(0, 0, 0)" stroke-miterlimit="10" pointer-events="all"/></g></g><g data-cell-id="p0_1"><g><path d="M 280 880 L 322 880 L 322 900 L 340 900 L 340 920 L 322 920 L 322 940 L 340 940 L 340 960 L 322 960 L 322 980 L 280 980 Z" fill="rgb(255, 255, 255)" stroke="rgb(0, 0, 0)" stroke-miterlimit="10" transform="rotate(90,310,930)" pointer-events="all"/></g></g><g data-cell-id="p0_2"><g><path d="M 420 900 L 490 900 L 490 912 L 520 912 L 520 924 L 490 924 L 490 936 L 520 936 L 520 948 L 490 948 L 490 960 L 420 960 Z" fill="rgb(255, 255, 255)" stroke="rgb(0, 0, 0)" stroke-miterlimit="10" transform="rotate(180,470,930)" pointer-events="all"/></g></g><g data-cell-id="p0_3"><g><path d="M 600 880 L 642 880 L 642 900 L 660 900 L 660 920 L 642 920 L 642 940 L 660 940 L 660 960 L 642 960 L 642 980 L 600 980 Z" fill="rgb(255, 255, 255)" stroke="rgb(0, 0, 0)" stroke-miterlimit="10" transform="rotate(270,630,930)" pointer-events="all"/></g></g><g data-cell-id="p0_4"><g><path d="M 740 900 L 810 900 L 810 912 L 840 912 L 840 924 L 810 924 L 810 936 L 840 936 L 840 948 L 810 948 L 810 960 L 740 960 Z" fill="rgb(255, 255, 255)" stroke="rgb(0, 0, 0)" stroke-miterlimit="10" transform="translate(790,0)scale(-1,1)translate(-790,0)" pointer-events="all"/></g></g><g data-cell-id="p0_5"><g><path d="M 900 900 L 970 900 L 970 912 L 1000 912 L 1000 924 L 970 924 L 970 936 L 1000 936 L 1000 948 L 970 948 L 970 960 L 900 960 Z" fill="rgb(255, 255, 255)" stroke="rgb(0, 0, 0)" stroke-miterlimit="10" transform="translate(0,930)scale(1,-1)translate(0,-930)" pointer-events="all"/></g></g><g data-cell-id="p0_6"><g><path d="M 1060 900 L 1130 900 L 1130 912 L 1160 912 L 1160 924 L 1130 924 L 1130 936 L 1160 936 L 1160 948 L 1130 948 L 1130 960 L 1060 960 Z" fill="rgb(255, 255, 255)" stroke="rgb(0, 0, 0)" stroke-miterlimit="10" transform="rotate(180,1110,930)" pointer-events="all"/></g></g><g data-cell-id="p0_7"><g><path d="M 1240 880 L 1282 880 L 1282 900 L 1300 900 L 1300 920 L 1282 920 L 1282 940 L 1300 940 L 1300 960 L 1282 960 L 1282 980 L 1240 980 Z" fill="rgb(255, 255, 255)" stroke="rgb(0, 0, 0)" stroke-miterlimit="10" transform="translate(0,930)scale(1,-1)translate(0,-930)rotate(-270,1270,930)" pointer-events="all"/></g></g><g data-cell-id="p0_8"><g><path d="M 120 1040 L 162 1040 L 162 1060 L 180 1060 L 180 1080 L 162 1080 L 162 1100 L 180 1100 L 180 1120 L 162 1120 L 162 1140 L 120 1140 Z" fill="rgb(255, 255, 255)" stroke="rgb(0, 0, 0)" stroke-miterlimit="10" transform="translate(150,0)scale(-1,1)translate(-150,0)rotate(-90,150,1090)" pointer-events="all"/></g></g><g data-cell-id="p0_9"><g><path d="M 260 1060 L 330 1060 L 330 1072 L 360 1072 L 360 1084 L 330 1084 L 330 1096 L 360 1096 L 360 1108 L 330 1108 L 330 1120 L 260 1120 Z" fill="rgb(255, 255, 255)" stroke="rgb(0, 0, 0)" stroke-miterlimit="10" transform="translate(310,0)scale(-1,1)translate(-310,0)rotate(-180,310,1090)" pointer-events="all"/></g></g><g data-cell-id="p1_0"><g><path d="M 420 1060 L 462 1060 L 462 1080 L 480 1080 L 480 1100 L 462 1100 L 462 1120 L 480 1120 L 480 1140 L 462 1140 L 462 1160 L 420 1160 Z" fill="rgb(255, 255, 255)" stroke="rgb(0, 0, 0)" stroke-miterlimit="10" pointer-events="all"/></g></g><g data-cell-id="p1_1"><g><path d="M 560 1080 L 630 1080 L 630 1092 L 660 1092 L 660 1104 L 630 1104 L 630 1116 L 660 1116 L 660 1128 L 630 1128 L 630 1140 L 560 1140 Z" fill="rgb(255, 255, 255)" stroke="rgb(0, 0, 0)" stroke-miterlimit="10" transform="rotate(90,610,1110)" pointer-events="all"/></g></g><g data-cell-id="p1_2"><g><path d="M 740 1060 L 782 1060 L 782 1080 L 800 1080 L 800 1100 L 782 1100 L 782 1120 L 800 1120 L 800 1140 L 782 1140 L 782 1160 L 740 1160 Z" fill="rgb(255, 255, 255)" stroke="rgb(0, 0, 0)" stroke-miterlimit="10" transform="rotate(180,770,1110)" pointer-events="all"/></g></g><g data-cell-id="p1_3"><g><path d="M 880 1080 L 950 1080 L 950 1092 L 980 1092 L 980 1104 L 950 1104 L 950 1116 L 980 1116 L 980 1128 L 950 1128 L 950 1140 L 880 1140 Z" fill="rgb(255, 255, 255)" stroke="rgb(0, 0, 0)" stroke-miterlimit="10" transform="rotate(270,930,1110)" pointer-events="all"/></g></g><g data-cell-id="p1_4"><g><path d="M 1060 1060 L 1102 1060 L 1102 1080 L 1120 1080 L 1120 1100 L 1102 1100 L 1102 1120 L 1120 1120 L 1120 1140 L 1102 1140 L 1102 1160 L 1060 1160 Z" fill="rgb(255, 255, 255)" stroke="rgb(0, 0, 0)" stroke-miterlimit="10" transform="translate(1090,0)scale(-1,1)translate(-1090,0)" pointer-events="all"/></g></g><g data-cell-id="p1_5"><g><path d="M 1220 1060 L 1262 1060 L 1262 1080 L 1280 1080 L 1280 1100 L 1262 1100 L 1262 1120 L 1280 1120 L 1280 1140 L 1262 1140 L 1262 1160 L 1220 1160 Z" fill="rgb(255, 255, 255)" stroke="rgb(0, 0, 0)" stroke-miterlimit="10" transform="translate(0,1110)scale(1,-1)translate(0,-1110)" pointer-events="all"/></g></g><g data-cell-id="p1_6"><g><path d="M 100 1220 L 142 1220 L 142 1240 L 160 1240 L 160 1260 L 142 1260 L 142 1280 L 160 1280 L 160 1300 L 142 1300 L 142 1320 L 100 1320 Z" fill="rgb(255, 255, 255)" stroke="rgb(0, 0, 0)" stroke-miterlimit="10" transform="rotate(180,130,1270)" pointer-events="all"/></g></g><g data-cell-id="p1_7"><g><path d="M 240 1240 L 310 1240 L 310 1252 L 340 1252 L 340 1264 L 310 1264 L 310 1276 L 340 1276 L 340 1288 L 310 1288 L 310 1300 L 240 1300 Z" fill="rgb(255, 255, 255)" stroke="rgb(0, 0, 0)" stroke-miterlimit="10" transform="translate(0,1270)scale(1,-1)translate(0,-1270)rotate(-270,290,1270)" pointer-events="all"/></g></g><g data-cell-id="p1_8"><g><path d="M 400 1240 L 470 1240 L 470 1252 L 500 1252 L 500 1264 L 470 1264 L 470 1276 L 500 1276 L 500 1288 L 470 1288 L 470 1300 L 400 1300 Z" fill="rgb(255, 255, 255)" stroke="rgb(0, 0, 0)" stroke-miterlimit="10" transform="translate(450,0)scale(-1,1)translate(-450,0)rotate(-90,450,1270)" pointer-events="all"/></g></g><g data-cell-id="p1_9"><g><path d="M 580 1220 L 622 1220 L 622 1240 L 640 1240 L 640 1260 L 622 1260 L 622 1280 L 640 1280 L 640 1300 L 622 1300 L 622 1320 L 580 1320 Z" fill="rgb(255, 255, 255)" stroke="rgb(0, 0, 0)" stroke-miterlimit="10" transform="translate(610,0)scale(-1,1)translate(-610,0)rotate(-180,610,1270)" pointer-events="all"/></g></g><g data-cell-id="h0"><g><path d="M 760 1220 L 840 1220 L 860 1260 L 840 1300 L 760 1300 L 740 1260 Z" fill="rgb(255, 255, 255)" stroke="rgb(0, 0, 0)" stroke-miterlimit="10" pointer-events="all"/></g></g><g data-cell-id="h1"><g><path d="M 940 1200 L 980 1200 L 1000 1260 L 980 1320 L 940 1320 L 920 1260 Z" fill="rgb(255, 255, 255)" stroke="rgb(0, 0, 0)" stroke-miterlimit="10" transform="rotate(90,960,1260)" pointer-events="all"/></g></g><g data-cell-id="h2"><g><path d="M 1080 1220 L 1160 1220 L 1180 1260 L 1160 1300 L 1080 1300 L 1060 1260 Z" fill="rgb(255, 255, 255)" stroke="rgb(0, 0, 0)" stroke-miterlimit="10" transform="rotate(180,1120,1260)" pointer-events="all"/></g></g><g data-cell-id="h3"><g><path d="M 1260 1200 L 1300 1200 L 1320 1260 L 1300 1320 L 1260 1320 L 1240 1260 Z" fill="rgb(255, 255, 255)" stroke="rgb(0, 0, 0)" stroke-miterlimit="10" transform="rotate(270,1280,1260)" pointer-events="all"/></g></g><g data-cell-id="h4"><g><path d="M 120 1380 L 200 1380 L 220 1420 L 200 1460 L 120 1460 L 100 1420 Z" fill="rgb(255, 255, 255)" stroke="rgb(0, 0, 0)" stroke-miterlimit="10" transform="translate(160,0)scale(-1,1)translate(-160,0)" pointer-events="all"/></g></g><g data-cell-id="h5"><g><path d="M 280 1380 L 360 1380 L 380 1420 L 360 1460 L 280 1460 L 260 1420 Z" fill="rgb(255, 255, 255)" stroke="rgb(0, 0, 0)" stroke-miterlimit="10" transform="translate(0,1420)scale(1,-1)translate(0,-1420)" pointer-events="all"/></g></g><g data-cell-id="h6"><g><path d="M 440 1380 L 520 1380 L 540 1420 L 520 1460 L 440 1460 L 420 1420 Z" fill="rgb(255, 255, 255)" stroke="rgb(0, 0, 0)" stroke-miterlimit="10" transform="rotate(180,480,1420)" pointer-events="all"/></g></g><g data-cell-id="h7"><g><path d="M 620 1360 L 660 1360 L 680 1420 L 660 1480 L 620 1480 L 600 1420 Z" fill="rgb(255, 255, 255)" stroke="rgb(0, 0, 0)" stroke-miterlimit="10" transform="translate(0,1420)scale(1,-1)translate(0,-1420)rotate(-270,640,1420)" pointer-events="all"/></g></g><g data-cell-id="h8"><g><path d="M 780 1360 L 820 1360 L 840 1420 L 820 1480 L 780 1480 L 760 1420 Z" fill="rgb(255, 255, 255)" stroke="rgb(0, 0, 0)" stroke-miterlimit="10" transform="translate(800,0)scale(-1,1)translate(-800,0)rotate(-90,800,1420)" pointer-events="all"/></g></g><g data-cell-id="h9"><g><path d="M 920 1380 L 1000 1380 L 1020 1420 L 1000 1460 L 920 1460 L 900 1420 Z" fill="rgb(255, 255, 255)" stroke="rgb(0, 0, 0)" stroke-miterlimit="10" transform="translate(960,0)scale(-1,1)translate(-960,0)rotate(-180,960,1420)" pointer-events="all"/></g></g><g data-cell-id="h10"><g><path d="M 1100 1380 L 1140 1380 L 1180 1420 L 1140 1460 L 1100 1460 L 1060 1420 Z" fill="rgb(255, 255, 255)" stroke="rgb(0, 0, 0)" stroke-miterlimit="10" pointer-events="all"/></g></g><g data-cell-id="h11"><g><path d="M 1280 1380 L 1280 1380 L 1340 1420 L 1280 1460 L 1280 1460 L 1220 1420 Z" fill="rgb(255, 255, 255)" stroke="rgb(0, 0, 0)" stroke-miterlimit="10" pointer-events="all"/></g></g><g data-cell-id="h12"><g><path d="M 130 1540 L 190 1540 L 220 1580 L 190 1620 L 130 1620 L 100 1580 Z" fill="rgb(255, 255, 255)" stroke="rgb(0, 0, 0)" stroke-miterlimit="10" pointer-events="all"/></g></g><g data-cell-id="h13"><g><path d="M 272 1540 L 368 1540 L 380 1580 L 368 1620 L 272 1620 L 260 1580 Z" fill="rgb(255, 255, 255)" stroke="rgb(0, 0, 0)" stroke-miterlimit="10" pointer-events="all"/></g></g><g data-cell-id="o0"><g><path d="M 450 1540 L 550 1540 L 580 1570 L 580 1590 L 550 1620 L 450 1620 L 420 1590 L 420 1570 Z" fill="rgb(255, 255, 255)" stroke="rgb(0, 0, 0)" stroke-miterlimit="10" pointer-events="all"/></g></g><g data-cell-id="o1"><g><path d="M 650 1500 L 670 1500 L 700 1530 L 700 1630 L 670 1660 L 650 1660 L 620 1630 L 620 1530 Z" fill="rgb(255, 255, 255)" stroke="rgb(0, 0, 0)" stroke-miterlimit="10" transform="rotate(90,660,1580)" pointer-events="all"/></g></g><g data-cell-id="o2"><g><path d="M 770 1540 L 870 1540 L 900 1570 L 900 1590 L 870 1620 L 770 1620 L 740 1590 L 740 1570 Z" fill="rgb(255, 255, 255)" stroke="rgb(0, 0, 0)" stroke-miterlimit="10" transform="rotate(180,820,1580)" pointer-events="all"/></g></g><g data-cell-id="o3"><g><path d="M 970 1500 L 990 1500 L 1020 1530 L 1020 1630 L 990 1660 L 970 1660 L 940 1630 L 940 1530 Z" fill="rgb(255, 255, 255)" stroke="rgb(0, 0, 0)" stroke-miterlimit="10" transform="rotate(270,980,1580)" pointer-events="all"/></g></g><g data-cell-id="o4"><g><path d="M 1090 1540 L 1190 1540 L 1220 1570 L 1220 1590 L 1190 1620 L 1090 1620 L 1060 1590 L 1060 1570 Z" fill="rgb(255, 255, 255)" stroke="rgb(0, 0, 0)" stroke-miterlimit="10" transform="translate(1140,0)scale(-1,1)translate(-1140,0)" pointer-events="all"/></g></g><g data-cell-id="o5"><g><path d="M 1250 1540 L 1350 1540 L 1380 1570 L 1380 1590 L 1350 1620 L 1250 1620 L 1220 1590 L 1220 1570 Z" fill="rgb(255, 255, 255)" stroke="rgb(0, 0, 0)" stroke-miterlimit="10" transform="translate(0,1580)scale(1,-1)translate(0,-1580)" pointer-events="all"/></g></g><g data-cell-id="o6"><g><path d="M 130 1700 L 230 1700 L 260 1730 L 260 1750 L 230 1780 L 130 1780 L 100 1750 L 100 1730 Z" fill="rgb(255, 255, 255)" stroke="rgb(0, 0, 0)" stroke-miterlimit="10" transform="rotate(180,180,1740)" pointer-events="all"/></g></g><g data-cell-id="o7"><g><path d="M 330 1660 L 350 1660 L 380 1690 L 380 1790 L 350 1820 L 330 1820 L 300 1790 L 300 1690 Z" fill="rgb(255, 255, 255)" stroke="rgb(0, 0, 0)" stroke-miterlimit="10" transform="translate(0,1740)scale(1,-1)translate(0,-1740)rotate(-270,340,1740)" pointer-events="all"/></g></g><g data-cell-id="o8"><g><path d="M 490 1660 L 510 1660 L 540 1690 L 540 1790 L 510 1820 L 490 1820 L 460 1790 L 460 1690 Z" fill="rgb(255, 255, 255)" stroke="rgb(0, 0, 0)" stroke-miterlimit="10" transform="translate(500,0)scale(-1,1)translate(-500,0)rotate(-90,500,1740)" pointer-events="all"/></g></g><g data-cell-id="o9"><g><path d="M 610 1700 L 710 1700 L 740 1730 L 740 1750 L 710 1780 L 610 1780 L 580 1750 L 580 1730 Z" fill="rgb(255, 255, 255)" stroke="rgb(0, 0, 0)" stroke-miterlimit="10" transform="translate(660,0)scale(-1,1)translate(-660,0)rotate(-180,660,1740)" pointer-events="all"/></g></g><g data-cell-id="o10"><g><path d="M 780 1700 L 860 1700 L 900 1740 L 900 1740 L 860 1780 L 780 1780 L 740 1740 L 740 1740 Z" fill="rgb(255, 255, 255)" stroke="rgb(0, 0, 0)" stroke-miterlimit="10" pointer-events="all"/></g></g><g data-cell-id="o11"><g><path d="M 900 1700 L 1060 1700 L 1060 1700 L 1060 1780 L 1060 1780 L 900 1780 L 900 1780 L 900 1700 Z" fill="rgb(255, 255, 255)" stroke="rgb(0, 0, 0)" stroke-miterlimit="10" pointer-events="all"/></g></g><g data-cell-id="oc0"><g><path d="M 1090 1700 L 1130 1700 L 1160 1730 L 1160 1770 L 1130 1800 L 1090 1800 L 1060 1770 L 1060 1730 Z" fill="rgb(255, 255, 255)" stroke="rgb(0, 0, 0)" stroke-miterlimit="10" pointer-events="all"/></g></g><g data-cell-id="od0"><g><path d="M 1221 1700 L 1319 1700 L 1320 1701 L 1320 1799 L 1319 1800 L 1221 1800 L 1220 1799 L 1220 1701 Z" fill="rgb(255, 255, 255)" stroke="rgb(0, 0, 0)" stroke-miterlimit="10" pointer-events="all"/></g></g><g data-cell-id="d0"><g><path d="M 640 2320 L 680 2360 L 640 2400 L 600 2360 Z" fill="rgb(255, 255, 255)" stroke="rgb(0, 0, 0)" stroke-miterlimit="10" pointer-events="all"/></g></g><g data-cell-id="s0_0"><g><rect x="800" y="2340" width="60" height="40" fill="rgb(255, 255, 255)" stroke="rgb(0, 0, 0)" pointer-events="all"/></g></g><g data-cell-id="s0_1"><g><rect x="780" y="2500" width="60" height="40" fill="rgb(255, 255, 255)" stroke="rgb(0, 0, 0)" pointer-events="all"/></g></g><g data-cell-id="s0_2"><g><rect x="610" y="2520" width="60" height="40" fill="rgb(255, 255, 255)" stroke="rgb(0, 0, 0)" pointer-events="all"/></g></g><g data-cell-id="s0_3"><g><rect x="420" y="2480" width="60" height="40" fill="rgb(255, 255, 255)" stroke="rgb(0, 0, 0)" pointer-events="all"/></g></g><g data-cell-id="s0_4"><g><rect x="400" y="2340" width="60" height="40" fill="rgb(255, 255, 255)" stroke="rgb(0, 0, 0)" pointer-events="all"/></g></g><g data-cell-id="s0_5"><g><rect x="430" y="2160" width="60" height="40" fill="rgb(255, 255, 255)" stroke="rgb(0, 0, 0)" pointer-events="all"/></g></g><g data-cell-id="s0_6"><g><rect x="630" y="2120" width="60" height="40" fill="rgb(255, 255, 255)" stroke="rgb(0, 0, 0)" pointer-events="all"/></g></g><g data-cell-id="s0_7"><g><rect x="770" y="2170" width="60" height="40" fill="rgb(255, 255, 255)" stroke="rgb(0, 0, 0)" pointer-events="all"/></g></g><g data-cell-id="d1"><g><path d="M 1340 2320 L 1380 2360 L 1340 2400 L 1300 2360 Z" fill="rgb(255, 255, 255)" stroke="rgb(0, 0, 0)" stroke-miterlimit="10" pointer-events="all"/></g></g><g data-cell-id="s1_0"><g><rect x="1500" y="2340" width="60" height="40" fill="rgb(255, 255, 255)" stroke="rgb(0, 0, 0)" pointer-events="all"/></g></g><g data-cell-id="s1_1"><g><rect x="1480" y="2500" width="60" height="40" fill="rgb(255, 255, 255)" stroke="rgb(0, 0, 0)" pointer-events="all"/></g></g><g data-cell-id="s1_2"><g><rect x="1310" y="2520" width="60" height="40" fill="rgb(255, 255, 255)" stroke="rgb(0, 0, 0)" pointer-events="all"/></g></g><g data-cell-id="s1_3"><g><rect x="1120" y="2480" width="60" height="40" fill="rgb(255, 255, 255)" stroke="rgb(0, 0, 0)" pointer-events="all"/></g></g><g data-cell-id="s1_4"><g><rect x="1100" y="2340" width="60" height="40" fill="rgb(255, 255, 255)" stroke="rgb(0, 0, 0)" pointer-events="all"/></g></g><g data-cell-id="s1_5"><g><rect x="1130" y="2160" width="60" height="40" fill="rgb(255, 255, 255)" stroke="rgb(0, 0, 0)" pointer-events="all"/></g></g><g data-cell-id="s1_6"><g><rect x="1330" y="2120" width="60" height="40" fill="rgb(255, 255, 255)" stroke="rgb(0, 0, 0)" pointer-events="all"/></g></g><g data-cell-id="s1_7"><g><rect x="1470" y="2170" width="60" height="40" fill="rgb(255, 255, 255)" stroke="rgb(0, 0, 0)" pointer-events="all"/></g></g><g data-cell-id="x0"><g><path d="M 620 2820 L 700 2820 L 720 2860 L 700 2900 L 620 2900 L 600 2860 Z" fill="rgb(255, 255, 255)" stroke="rgb(0, 0, 0)" stroke-miterlimit="10" pointer-events="all"/></g></g><g data-cell-id="xs0_0"><g><rect x="800" y="2840" width="60" height="40" fill="rgb(255, 255, 255)" stroke="rgb(0, 0, 0)" pointer-events="all"/></g></g><g data-cell-id="xs0_1"><g><rect x="780" y="3000" width="60" height="40" fill="rgb(255, 255, 255)" stroke="rgb(0, 0, 0)" pointer-events="all"/></g></g><g data-cell-id="xs0_2"><g><rect x="610" y="3020" width="60" height="40" fill="rgb(255, 255, 255)" stroke="rgb(0, 0, 0)" pointer-events="all"/></g></g><g data-cell-id="xs0_3"><g><rect x="420" y="2980" width="60" height="40" fill="rgb(255, 255, 255)" stroke="rgb(0, 0, 0)" pointer-events="all"/></g></g><g data-cell-id="xs0_4"><g><rect x="400" y="2840" width="60" height="40" fill="rgb(255, 255, 255)" stroke="rgb(0, 0, 0)" pointer-events="all"/></g></g><g data-cell-id="xs0_5"><g><rect x="430" y="2660" width="60" height="40" fill="rgb(255, 255, 255)" stroke="rgb(0, 0, 0)" pointer-events="all"/></g></g><g data-cell-id="xs0_6"><g><rect x="630" y="2620" width="60" height="40" fill="rgb(255, 255, 255)" stroke="rgb(0, 0, 0)" pointer-events="all"/></g></g><g data-cell-id="xs0_7"><g><rect x="770" y="2670" width="60" height="40" fill="rgb(255, 255, 255)" stroke="rgb(0, 0, 0)" pointer-events="all"/></g></g><g data-cell-id="x1"><g><path d="M 1320 2820 L 1400 2820 L 1420 2860 L 1400 2900 L 1320 2900 L 1300 2860 Z" fill="rgb(255, 255, 255)" stroke="rgb(0, 0, 0)" stroke-miterlimit="10" pointer-events="all"/></g></g><g data-cell-id="xs1_0"><g><rect x="1500" y="2840" width="60" height="40" fill="rgb(255, 255, 255)" stroke="rgb(0, 0, 0)" pointer-events="all"/></g></g><g data-cell-id="xs1_1"><g><rect x="1480" y="3000" width="60" height="40" fill="rgb(255, 255, 255)" stroke="rgb(0, 0, 0)" pointer-events="all"/></g></g><g data-cell-id="xs1_2"><g><rect x="1310" y="3020" width="60" height="40" fill="rgb(255, 255, 255)" stroke="rgb(0, 0, 0)" pointer-events="all"/></g></g><g data-cell-id="xs1_3"><g><rect x="1120" y="2980" width="60" height="40" fill="rgb(255, 255, 255)" stroke="rgb(0, 0, 0)" pointer-events="all"/></g></g><g data-cell-id="xs1_4"><g><rect x="1100" y="2840" width="60" height="40" fill="rgb(255, 255, 255)" stroke="rgb(0, 0, 0)" pointer-events="all"/></g></g><g data-cell-id="xs1_5"><g><rect x="1130" y="2660" width="60" height="40" fill="rgb(255, 255, 255)" stroke="rgb(0, 0, 0)" pointer-events="all"/></g></g><g data-cell-id="xs1_6"><g><rect x="1330" y="2620" width="60" height="40" fill="rgb(255, 255, 255)" stroke="rgb(0, 0, 0)" pointer-events="all"/></g></g><g data-cell-id="xs1_7"><g><rect x="1470" y="2670" width="60" height="40" fill="rgb(255, 255, 255)" stroke="rgb(0, 0, 0)" pointer-events="all"/></g></g><g data-cell-id="xn0"><g><path d="M 640 3300 L 680 3300 L 700 3360 L 680 3420 L 640 3420 L 620 3360 Z" fill="rgb(255, 255, 255)" stroke="rgb(0, 0, 0)" stroke-miterlimit="10" transform="rotate(270,660,3360)" pointer-events="all"/></g></g><g data-cell-id="xns0_0"><g><rect x="800" y="3340" width="60" height="40" fill="rgb(255, 255, 255)" stroke="rgb(0, 0, 0)" pointer-events="all"/></g></g><g data-cell-id="xns0_1"><g><rect x="780" y="3500" width="60" height="40" fill="rgb(255, 255, 255)" stroke="rgb(0, 0, 0)" pointer-events="all"/></g></g><g data-cell-id="xns0_2"><g><rect x="610" y="3520" width="60" height="40" fill="rgb(255, 255, 255)" stroke="rgb(0, 0, 0)" pointer-events="all"/></g></g><g data-cell-id="xns0_3"><g><rect x="420" y="3480" width="60" height="40" fill="rgb(255, 255, 255)" stroke="rgb(0, 0, 0)" pointer-events="all"/></g></g><g data-cell-id="xns0_4"><g><rect x="400" y="3340" width="60" height="40" fill="rgb(255, 255, 255)" stroke="rgb(0, 0, 0)" pointer-events="all"/></g></g><g data-cell-id="xns0_5"><g><rect x="430" y="3160" width="60" height="40" fill="rgb(255, 255, 255)" stroke="rgb(0, 0, 0)" pointer-events="all"/></g></g><g data-cell-id="xns0_6"><g><rect x="630" y="3120" width="60" height="40" fill="rgb(255, 255, 255)" stroke="rgb(0, 0, 0)" pointer-events="all"/></g></g><g data-cell-id="xns0_7"><g><rect x="770" y="3170" width="60" height="40" fill="rgb(255, 255, 255)" stroke="rgb(0, 0, 0)" pointer-events="all"/></g></g><g data-cell-id="xn1"><g><path d="M 1340 3300 L 1380 3300 L 1400 3360 L 1380 3420 L 1340 3420 L 1320 3360 Z" fill="rgb(255, 255, 255)" stroke="rgb(0, 0, 0)" stroke-miterlimit="10" transform="rotate(270,1360,3360)" pointer-events="all"/></g></g><g data-cell-id="xns1_0"><g><rect x="1500" y="3340" width="60" height="40" fill="rgb(255, 255, 255)" stroke="rgb(0, 0, 0)" pointer-events="all"/></g></g><g data-cell-id="xns1_1"><g><rect x="1480" y="3500" width="60" height="40" fill="rgb(255, 255, 255)" stroke="rgb(0, 0, 0)" pointer-events="all"/></g></g><g data-cell-id="xns1_2"><g><rect x="1310" y="3520" width="60" height="40" fill="rgb(255, 255, 255)" stroke="rgb(0, 0, 0)" pointer-events="all"/></g></g><g data-cell-id="xns1_3"><g><rect x="1120" y="3480" width="60" height="40" fill="rgb(255, 255, 255)" stroke="rgb(0, 0, 0)" pointer-events="all"/></g></g><g data-cell-id="xns1_4"><g><rect x="1100" y="3340" width="60" height="40" fill="rgb(255, 255, 255)" stroke="rgb(0, 0, 0)" pointer-events="all"/></g></g><g data-cell-id="xns1_5"><g><rect x="1130" y="3160" width="60" height="40" fill="rgb(255, 255, 255)" stroke="rgb(0, 0, 0)" pointer-events="all"/></g></g><g data-cell-id="xns1_6"><g><rect x="1330" y="3120" width="60" height="40" fill="rgb(255, 255, 255)" stroke="rgb(0, 0, 0)" pointer-events="all"/></g></g><g data-cell-id="xns1_7"><g><rect x="1470" y="3170" width="60" height="40" fill="rgb(255, 255, 255)" stroke="rgb(0, 0, 0)" pointer-events="all"/></g></g><g data-cell-id="xo0"><g><path d="M 630 3820 L 670 3820 L 700 3850 L 700 3890 L 670 3920 L 630 3920 L 600 3890 L 600 3850 Z" fill="rgb(255, 255, 255)" stroke="rgb(0, 0, 0)" stroke-miterlimit="10" pointer-events="all"/></g></g><g data-cell-id="xos0_0"><g><rect x="800" y="3840" width="60" height="40" fill="rgb(255, 255, 255)" stroke="rgb(0, 0, 0)" pointer-events="all"/></g></g><g data-cell-id="xos0_1"><g><rect x="780" y="4000" width="60" height="40" fill="rgb(255, 255, 255)" stroke="rgb(0, 0, 0)" pointer-events="all"/></g></g><g data-cell-id="xos0_2"><g><rect x="610" y="4020" width="60" height="40" fill="rgb(255, 255, 255)" stroke="rgb(0, 0, 0)" pointer-events="all"/></g></g><g data-cell-id="xos0_3"><g><rect x="420" y="3980" width="60" height="40" fill="rgb(255, 255, 255)" stroke="rgb(0, 0, 0)" pointer-events="all"/></g></g><g data-cell-id="xos0_4"><g><rect x="400" y="3840" width="60" height="40" fill="rgb(255, 255, 255)" stroke="rgb(0, 0, 0)" pointer-events="all"/></g></g><g data-cell-id="xos0_5"><g><rect x="430" y="3660" width="60" height="40" fill="rgb(255, 255, 255)" stroke="rgb(0, 0, 0)" pointer-events="all"/></g></g><g data-cell-id="xos0_6"><g><rect x="630" y="3620" width="60" height="40" fill="rgb(255, 255, 255)" stroke="rgb(0, 0, 0)" pointer-events="all"/></g></g><g data-cell-id="xos0_7"><g><rect x="770" y="3670" width="60" height="40" fill="rgb(255, 255, 255)" stroke="rgb(0, 0, 0)" pointer-events="all"/></g></g><g data-cell-id="xo1"><g><path d="M 1330 3820 L 1370 3820 L 1400 3850 L 1400 3890 L 1370 3920 L 1330 3920 L 1300 3890 L 1300 3850 Z" fill="rgb(255, 255, 255)" stroke="rgb(0, 0, 0)" stroke-miterlimit="10" pointer-events="all"/></g></g><g data-cell-id="xos1_0"><g><rect x="1500" y="3840" width="60" height="40" fill="rgb(255, 255, 255)" stroke="rgb(0, 0, 0)" pointer-events="all"/></g></g><g data-cell-id="xos1_1"><g><rect x="1480" y="4000" width="60" height="40" fill="rgb(255, 255, 255)" stroke="rgb(0, 0, 0)" pointer-events="all"/></g></g><g data-cell-id="xos1_2"><g><rect x="1310" y="4020" width="60" height="40" fill="rgb(255, 255, 255)" stroke="rgb(0, 0, 0)" pointer-events="all"/></g></g><g data-cell-id="xos1_3"><g><rect x="1120" y="3980" width="60" height="40" fill="rgb(255, 255, 255)" stroke="rgb(0, 0, 0)" pointer-events="all"/></g></g><g data-cell-id="xos1_4"><g><rect x="1100" y="3840" width="60" height="40" fill="rgb(255, 255, 255)" stroke="rgb(0, 0, 0)" pointer-events="all"/></g></g><g data-cell-id="xos1_5"><g><rect x="1130" y="3660" width="60" height="40" fill="rgb(255, 255, 255)" stroke="rgb(0, 0, 0)" pointer-events="all"/></g></g><g data-cell-id="xos1_6"><g><rect x="1330" y="3620" width="60" height="40" fill="rgb(255, 255, 255)" stroke="rgb(0, 0, 0)" pointer-events="all"/></g></g><g data-cell-id="xos1_7"><g><rect x="1470" y="3670" width="60" height="40" fill="rgb(255, 255, 255)" stroke="rgb(0, 0, 0)" pointer-events="all"/></g></g><g data-cell-id="e0_0"><g><path d="M 800 2360 L 680 2360" fill="none" stroke="rgb(0, 0, 0)" stroke-miterlimit="10" pointer-events="stroke"/></g></g><g data-cell-id="e0_1"><g><path d="M 788.75 2500 L 660.61 2379.39" fill="none" stroke="rgb(0, 0, 0)" stroke-miterlimit="10" pointer-events="stroke"/></g></g><g data-cell-id="e0_2"><g><path d="M 640 2520 L 640 2400" fill="none" stroke="rgb(0, 0, 0)" stroke-miterlimit="10" pointer-events="stroke"/></g></g><g data-cell-id="e0_3"><g><path d="M 477.14 2480 L 616.97 2376.97" fill="none" stroke="rgb(0, 0, 0)" stroke-miterlimit="10" pointer-events="stroke"/></g></g><g data-cell-id="e0_4"><g><path d="M 460 2360 L 600 2360" fill="none" stroke="rgb(0, 0, 0)" stroke-miterlimit="10" pointer-events="stroke"/></g></g><g data-cell-id="e0_5"><g><path d="M 480 2200 L 620 2340" fill="none" stroke="rgb(0, 0, 0)" stroke-miterlimit="10" pointer-events="stroke"/></g></g><g data-cell-id="e0_6"><g><path d="M 658.18 2160 L 643.33 2323.33" fill="none" stroke="rgb(0, 0, 0)" stroke-miterlimit="10" pointer-events="stroke"/></g></g><g data-cell-id="e0_7"><g><path d="M 781.18 2210 L 659.39 2339.39" fill="none" stroke="rgb(0, 0, 0)" stroke-miterlimit="10" pointer-events="stroke"/></g></g><g data-cell-id="e1_0"><g><path d="M 1500 2360 L 1380 2360" fill="none" stroke="rgb(0, 0, 0)" stroke-miterlimit="10" pointer-events="stroke"/></g></g><g data-cell-id="e1_1"><g><path d="M 1480 2520 L 1340 2520 L 1340 2400" fill="none" stroke="rgb(0, 0, 0)" stroke-miterlimit="10" pointer-events="stroke"/></g></g><g data-cell-id="e1_2"><g><path d="M 1340 2520 L 1340 2400" fill="none" stroke="rgb(0, 0, 0)" stroke-miterlimit="10" pointer-events="stroke"/></g></g><g data-cell-id="e1_3"><g><path d="M 1180 2500 L 1340 2500 L 1340 2400" fill="none" stroke="rgb(0, 0, 0)" stroke-miterlimit="10" pointer-events="stroke"/></g></g><g data-cell-id="e1_4"><g><path d="M 1160 2360 L 1300 2360" fill="none" stroke="rgb(0, 0, 0)" stroke-miterlimit="10" pointer-events="stroke"/></g></g><g data-cell-id="e1_5"><g><path d="M 1190 2180 L 1340 2180 L 1340 2320" fill="none" stroke="rgb(0, 0, 0)" stroke-miterlimit="10" pointer-events="stroke"/></g></g><g data-cell-id="e1_6"><g><path d="M 1360 2160 L 1360 2240 L 1340 2240 L 1340 2320" fill="none" stroke="rgb(0, 0, 0)" stroke-miterlimit="10" pointer-events="stroke"/></g></g><g data-cell-id="e1_7"><g><path d="M 1470 2190 L 1340 2190 L 1340 2320" fill="none" stroke="rgb(0, 0, 0)" stroke-miterlimit="10" pointer-events="stroke"/></g></g><g data-cell-id="xe0_0"><g><path d="M 800 2860 L 720 2860" fill="none" stroke="rgb(0, 0, 0)" stroke-miterlimit="10" pointer-events="stroke"/></g></g><g data-cell-id="xe0_1"><g><path d="M 791.25 3000 L 697.5 2900" fill="none" stroke="rgb(0, 0, 0)" stroke-miterlimit="10" pointer-events="stroke"/></g></g><g data-cell-id="xe0_2"><g><path d="M 642.22 3020 L 655.56 2900" fill="none" stroke="rgb(0, 0, 0)" stroke-miterlimit="10" pointer-events="stroke"/></g></g><g data-cell-id="xe0_3"><g><path d="M 480 2980 L 615 2890" fill="none" stroke="rgb(0, 0, 0)" stroke-miterlimit="10" pointer-events="stroke"/></g></g><g data-cell-id="xe0_4"><g><path d="M 460 2860 L 600 2860" fill="none" stroke="rgb(0, 0, 0)" stroke-miterlimit="10" pointer-events="stroke"/></g></g><g data-cell-id="xe0_5"><g><path d="M 482.22 2700 L 618.62 2822.76" fill="none" stroke="rgb(0, 0, 0)" stroke-miterlimit="10" pointer-events="stroke"/></g></g><g data-cell-id="xe0_6"><g><path d="M 660 2660 L 660 2820" fill="none" stroke="rgb(0, 0, 0)" stroke-miterlimit="10" pointer-events="stroke"/></g></g><g data-cell-id="xe0_7"><g><path d="M 783.53 2710 L 692.94 2820" fill="none" stroke="rgb(0, 0, 0)" stroke-miterlimit="10" pointer-events="stroke"/></g></g><g data-cell-id="xe1_0"><g><path d="M 1500 2860 L 1420 2860" fill="none" stroke="rgb(0, 0, 0)" stroke-miterlimit="10" pointer-events="stroke"/></g></g><g data-cell-id="xe1_1"><g><path d="M 1480 3020 L 1360 3020 L 1360 2900" fill="none" stroke="rgb(0, 0, 0)" stroke-miterlimit="10" pointer-events="stroke"/></g></g><g data-cell-id="xe1_2"><g><path d="M 1340 3020 L 1340 2960 L 1360 2960 L 1360 2900" fill="none" stroke="rgb(0, 0, 0)" stroke-miterlimit="10" pointer-events="stroke"/></g></g><g data-cell-id="xe1_3"><g><path d="M 1180 3000 L 1360 3000 L 1360 2900" fill="none" stroke="rgb(0, 0, 0)" stroke-miterlimit="10" pointer-events="stroke"/></g></g><g data-cell-id="xe1_4"><g><path d="M 1160 2860 L 1300 2860" fill="none" stroke="rgb(0, 0, 0)" stroke-miterlimit="10" pointer-events="stroke"/></g></g><g data-cell-id="xe1_5"><g><path d="M 1190 2680 L 1360 2680 L 1360 2820" fill="none" stroke="rgb(0, 0, 0)" stroke-miterlimit="10" pointer-events="stroke"/></g></g><g data-cell-id="xe1_6"><g><path d="M 1360 2660 L 1360 2820" fill="none" stroke="rgb(0, 0, 0)" stroke-miterlimit="10" pointer-events="stroke"/></g></g><g data-cell-id="xe1_7"><g><path d="M 1470 2690 L 1360 2690 L 1360 2820" fill="none" stroke="rgb(0, 0, 0)" stroke-miterlimit="10" pointer-events="stroke"/></g></g><g data-cell-id="xne0_0"><g><path d="M 800 3360 L 720 3360" fill="none" stroke="rgb(0, 0, 0)" stroke-miterlimit="10" pointer-events="stroke"/></g></g><g data-cell-id="xne0_1"><g><path d="M 791.25 3500 L 688.57 3390.48" fill="none" stroke="rgb(0, 0, 0)" stroke-miterlimit="10" pointer-events="stroke"/></g></g><g data-cell-id="xne0_2"><g><path d="M 642.22 3520 L 655.71 3398.57" fill="none" stroke="rgb(0, 0, 0)" stroke-miterlimit="10" pointer-events="stroke"/></g></g><g data-cell-id="xne0_3"><g><path d="M 480 3480 L 620 3386.67" fill="none" stroke="rgb(0, 0, 0)" stroke-miterlimit="10" pointer-events="stroke"/></g></g><g data-cell-id="xne0_4"><g><path d="M 460 3360 L 600 3360" fill="none" stroke="rgb(0, 0, 0)" stroke-miterlimit="10" pointer-events="stroke"/></g></g><g data-cell-id="xne0_5"><g><path d="M 482.22 3200 L 627.57 3330.81" fill="none" stroke="rgb(0, 0, 0)" stroke-miterlimit="10" pointer-events="stroke"/></g></g><g data-cell-id="xne0_6"><g><path d="M 660 3160 L 660 3320" fill="none" stroke="rgb(0, 0, 0)" stroke-miterlimit="10" pointer-events="stroke"/></g></g><g data-cell-id="xne0_7"><g><path d="M 783.53 3210 L 685.85 3328.62" fill="none" stroke="rgb(0, 0, 0)" stroke-miterlimit="10" pointer-events="stroke"/></g></g><g data-cell-id="xne1_0"><g><path d="M 1500 3360 L 1420 3360" fill="none" stroke="rgb(0, 0, 0)" stroke-miterlimit="10" pointer-events="stroke"/></g></g><g data-cell-id="xne1_1"><g><path d="M 1480 3520 L 1360 3520 L 1360 3400" fill="none" stroke="rgb(0, 0, 0)" stroke-miterlimit="10" pointer-events="stroke"/></g></g><g data-cell-id="xne1_2"><g><path d="M 1340 3520 L 1340 3460 L 1360 3460 L 1360 3400" fill="none" stroke="rgb(0, 0, 0)" stroke-miterlimit="10" pointer-events="stroke"/></g></g><g data-cell-id="xne1_3"><g><path d="M 1180 3500 L 1360 3500 L 1360 3400" fill="none" stroke="rgb(0, 0, 0)" stroke-miterlimit="10" pointer-events="stroke"/></g></g><g data-cell-id="xne1_4"><g><path d="M 1160 3360 L 1300 3360" fill="none" stroke="rgb(0, 0, 0)" stroke-miterlimit="10" pointer-events="stroke"/></g></g><g data-cell-id="xne1_5"><g><path d="M 1190 3180 L 1360 3180 L 1360 3320" fill="none" stroke="rgb(0, 0, 0)" stroke-miterlimit="10" pointer-events="stroke"/></g></g><g data-cell-id="xne1_6"><g><path d="M 1360 3160 L 1360 3320" fill="none" stroke="rgb(0, 0, 0)" stroke-miterlimit="10" pointer-events="stroke"/></g></g><g data-cell-id="xne1_7"><g><path d="M 1470 3190 L 1360 3190 L 1360 3320" fill="none" stroke="rgb(0, 0, 0)" stroke-miterlimit="10" pointer-events="stroke"/></g></g><g data-cell-id="xoe0_0"><g><path d="M 800 3861.67 L 700 3867.22" fill="none" stroke="rgb(0, 0, 0)" stroke-miterlimit="10" pointer-events="stroke"/></g></g><g data-cell-id="xoe0_1"><g><path d="M 788.67 4000 L 700 3916.88" fill="none" stroke="rgb(0, 0, 0)" stroke-miterlimit="10" pointer-events="stroke"/></g></g><g data-cell-id="xoe0_2"><g><path d="M 641.18 4020 L 647.06 3920" fill="none" stroke="rgb(0, 0, 0)" stroke-miterlimit="10" pointer-events="stroke"/></g></g><g data-cell-id="xoe0_3"><g><path d="M 480 3980.5 L 600 3902.5" fill="none" stroke="rgb(0, 0, 0)" stroke-miterlimit="10" pointer-events="stroke"/></g></g><g data-cell-id="xoe0_4"><g><path d="M 460 3861.36 L 600 3867.73" fill="none" stroke="rgb(0, 0, 0)" stroke-miterlimit="10" pointer-events="stroke"/></g></g><g data-cell-id="xoe0_5"><g><path d="M 480 3700 L 600 3820" fill="none" stroke="rgb(0, 0, 0)" stroke-miterlimit="10" pointer-events="stroke"/></g></g><g data-cell-id="xoe0_6"><g><path d="M 659.13 3660 L 652.17 3820" fill="none" stroke="rgb(0, 0, 0)" stroke-miterlimit="10" pointer-events="stroke"/></g></g><g data-cell-id="xoe0_7"><g><path d="M 783.33 3710 L 691.67 3820" fill="none" stroke="rgb(0, 0, 0)" stroke-miterlimit="10" pointer-events="stroke"/></g></g><g data-cell-id="xoe1_0"><g><path d="M 1500 3860 L 1450 3860 L 1450 3870 L 1400 3870" fill="none" stroke="rgb(0, 0, 0)" stroke-miterlimit="10" pointer-events="stroke"/></g></g><g data-cell-id="xoe1_1"><g><path d="M 1480 4020 L 1350 4020 L 1350 3920" fill="none" stroke="rgb(0, 0, 0)" stroke-miterlimit="10" pointer-events="stroke"/></g></g><g data-cell-id="xoe1_2"><g><path d="M 1340 4020 L 1340 3970 L 1350 3970 L 1350 3920" fill="none" stroke="rgb(0, 0, 0)" stroke-miterlimit="10" pointer-events="stroke"/></g></g><g data-cell-id="xoe1_3"><g><path d="M 1180 4000 L 1350 4000 L 1350 3920" fill="none" stroke="rgb(0, 0, 0)" stroke-miterlimit="10" pointer-events="stroke"/></g></g><g data-cell-id="xoe1_4"><g><path d="M 1160 3860 L 1230 3860 L 1230 3870 L 1300 3870" fill="none" stroke="rgb(0, 0, 0)" stroke-miterlimit="10" pointer-events="stroke"/></g></g><g data-cell-id="xoe1_5"><g><path d="M 1190 3680 L 1350 3680 L 1350 3820" fill="none" stroke="rgb(0, 0, 0)" stroke-miterlimit="10" pointer-events="stroke"/></g></g><g data-cell-id="xoe1_6"><g><path d="M 1360 3660 L 1360 3740 L 1350 3740 L 1350 3820" fill="none" stroke="rgb(0, 0, 0)" stroke-miterlimit="10" pointer-events="stroke"/></g></g><g data-cell-id="xoe1_7"><g><path d="M 1470 3690 L 1350 3690 L 1350 3820" fill="none" stroke="rgb(0, 0, 0)" stroke-miterlimit="10" pointer-events="stroke"/></g></g></g></g></g></svg>